<svg width="120" height="125" viewBox="0 0 120 125" fill="none" xmlns="http://www.w3.org/2000/svg">
<path d="M103.011 49.0304C108.177 46.9565 116.617 44.7773 116.617 44.7773C116.617 44.7773 99.2948 38.0494 87.6319 36.2952C79.0263 35.0009 65.3754 35.1921 65.3754 35.1921L55.7382 41.8231L58.6271 36.8154C58.6271 36.8154 50.8801 37.503 46.1241 38.8686C42.0353 40.0425 36.0082 42.9089 36.0082 42.9089L24.8781 54.6261L28.7151 46.9359C28.7151 46.9359 21.8673 52.557 18.703 57.165C15.8888 61.2632 13.1878 68.6383 13.1878 68.6383C13.1878 68.6383 27.7379 57.6721 38.2494 52.8373C54.2858 45.4613 82.2605 42.5417 82.2605 42.5417C82.2605 42.5417 57.8691 47.3941 43.5686 54.0202C26.7973 61.7911 4.63208 80.9315 4.63208 80.9315L7.17408 82.8411L13.6933 76.8748L30.035 84.6892L47.3928 82.5002L39.1149 76.8637L53.6925 79.6669C53.6925 79.6669 58.7988 76.437 62.0103 74.2758C65.2362 72.1049 70.1732 68.5744 70.1732 68.5744L54.5301 59.4419L74.8285 65.4758L87.6473 56.2881L81.8196 51.1343L91.3556 54.709C91.3556 54.709 98.3121 50.9166 103.011 49.0304Z" stroke="#3278FF" stroke-width="2"/>
<path d="M103.011 49.0304C108.177 46.9565 116.617 44.7773 116.617 44.7773C116.617 44.7773 99.2948 38.0494 87.6319 36.2952C79.0263 35.0009 65.3754 35.1921 65.3754 35.1921L55.7382 41.8231L58.6271 36.8154C58.6271 36.8154 50.8801 37.503 46.1241 38.8686C42.0353 40.0425 36.0082 42.9089 36.0082 42.9089L24.8781 54.6261L28.7151 46.9359C28.7151 46.9359 21.8673 52.557 18.703 57.165C15.8888 61.2632 13.1878 68.6383 13.1878 68.6383C13.1878 68.6383 27.7379 57.6721 38.2494 52.8373C54.2858 45.4613 82.2605 42.5417 82.2605 42.5417C82.2605 42.5417 57.8691 47.3941 43.5686 54.0202C26.7973 61.7911 4.63208 80.9315 4.63208 80.9315L7.17408 82.8411L13.6933 76.8748L30.035 84.6892L47.3928 82.5002L39.1149 76.8637L53.6925 79.6669C53.6925 79.6669 58.7988 76.437 62.0103 74.2758C65.2362 72.1049 70.1732 68.5744 70.1732 68.5744L54.5301 59.4419L74.8285 65.4758L87.6473 56.2881L81.8196 51.1343L91.3556 54.709C91.3556 54.709 98.3121 50.9166 103.011 49.0304Z" stroke="url(#paint0_linear)" stroke-width="2"/>
<defs>
<linearGradient id="paint0_linear" x1="88.2881" y1="23.496" x2="30.5277" y2="100.385" gradientUnits="userSpaceOnUse">
<stop stop-color="#FF82F2"/>
<stop offset="1" stop-color="white" stop-opacity="0"/>
</linearGradient>
</defs>
</svg>
