<svg width="66" height="67" viewBox="0 0 66 67" fill="none" xmlns="http://www.w3.org/2000/svg">
<path d="M8.42164 29.3099C5.45765 28.4937 0.690955 27.8237 0.690955 27.8237C0.690955 27.8237 9.77655 23.0531 16.0667 21.3641C20.708 20.1179 28.2102 19.3725 28.2102 19.3725L33.9112 22.4106L32.0142 19.8429C32.0142 19.8429 36.3078 19.7376 39.0025 20.1906C41.3191 20.5801 44.8048 21.7774 44.8048 21.7774L51.6417 27.5134L49.0573 23.5328C49.0573 23.5328 53.1649 26.1906 55.1881 28.5219C56.9876 30.5952 58.929 34.4737 58.929 34.4737C58.929 34.4737 50.2623 29.3629 44.1934 27.3648C34.9348 24.3165 19.4032 24.457 19.4032 24.457C19.4032 24.457 33.089 25.6002 41.3485 28.3452C51.0349 31.5644 64.3893 40.6861 64.3893 40.6861L63.1135 41.8922L59.1647 39.0246L50.6848 44.3303L41.0241 44.2104L45.2151 40.602L37.391 43.0482C37.391 43.0482 34.3879 41.594 32.4912 40.6082C30.5859 39.618 27.657 37.9883 27.657 37.9883L35.6716 32.0029L24.9096 36.578L17.3036 32.3352L20.1803 29.1443L15.1705 31.6998C15.1705 31.6998 11.1173 30.0522 8.42164 29.3099Z" fill="url(#paint0_linear)"/>
<defs>
<linearGradient id="paint0_linear" x1="0.690981" y1="33.6776" x2="94.6866" y2="33.6776" gradientUnits="userSpaceOnUse">
<stop stop-color="#F97EFC"/>
<stop offset="1" stop-color="#3278FF"/>
</linearGradient>
</defs>
</svg>
