<svg width="161" height="161" viewBox="0 0 161 161" fill="none" xmlns="http://www.w3.org/2000/svg">
<path d="M141.307 70.5209C148.617 68.6334 160.348 67.1756 160.348 67.1756C160.348 67.1756 138.226 55.1042 122.847 50.7095C111.5 47.4668 93.1075 45.3414 93.1075 45.3414L78.9894 52.5772L83.7485 46.3468C83.7485 46.3468 73.2097 45.9194 66.5752 46.9258C60.8714 47.791 52.2654 50.5939 52.2654 50.5939L35.2517 64.4095L41.7543 54.7369C41.7543 54.7369 31.5636 61.1014 26.5039 66.7463C22.0039 71.7667 17.0841 81.2139 17.0841 81.2139C17.0841 81.2139 38.5662 69.0051 53.5467 64.3376C76.4011 57.2167 114.533 58.1727 114.533 58.1727C114.533 58.1727 80.8828 60.4415 60.4939 66.8569C36.5823 74.3806 3.43214 96.2535 3.43214 96.2535L6.51753 99.2653L16.3264 92.3792L36.9401 105.741L60.6663 105.826L50.5173 96.8012L69.6331 103.116C69.6331 103.116 77.0642 99.6628 81.7604 97.3169C86.4778 94.9603 93.7336 91.0738 93.7336 91.0738L74.2896 76.0615L100.535 87.7191L119.379 77.6001L112.441 69.6517L124.641 76.1237C124.641 76.1237 134.659 72.2375 141.307 70.5209Z" fill="url(#paint0_linear)"/>
<defs>
<linearGradient id="paint0_linear" x1="160.118" y1="81.5498" x2="-70.6865" y2="77.8526" gradientUnits="userSpaceOnUse">
<stop stop-color="#F97EFC"/>
<stop offset="1" stop-color="#3278FF"/>
</linearGradient>
</defs>
</svg>
